<?xml version="1.0" encoding="iso-8859-1"?>
<!-- Generator: Adobe Illustrator 25.1.0, SVG Export Plug-In . SVG Version: 6.00 Build 0)  -->
<svg version="1.1" id="Layer_1" xmlns="http://www.w3.org/2000/svg" xmlns:xlink="http://www.w3.org/1999/xlink" x="0px" y="0px"
	 width="640.617px" height="520.628px" viewBox="0 0 640.617 520.628" enable-background="new 0 0 640.617 520.628"
	 xml:space="preserve">
<path id="_x23_F2F2F3" fill="#F2F2F3" d="M559.82,188.7l-24.739-0.153v-41.342c0-8.69-4.799-16.371-12.185-20.253
	c0.731-16.001,4.688-20.735,5.975-21.857c0.547-0.477,0.944-0.61,1.069-0.641c0.102-0.017,0.293-0.011,0.384-0.009
	c0.473,0.018,0.784-0.005,0.901-0.015c7.969-0.616,13.534-9.006,13.534-20.403c0-10.576-4.862-18.691-12.096-20.193
	c-0.934-0.194-2.561-0.312-3.368-0.33c-3.288-0.081-11.881,0.532-20.237,7.721c-8.181,7.04-17.893,22.345-18.921,55.433
	c-7.646,3.796-12.771,11.711-12.771,20.548v40.986l-63.15-0.39L379.442,52.756c7.057-3.994,11.425-11.452,11.425-19.56V22.482
	C390.867,10.085,380.781,0,368.384,0H134.063c-12.396,0-22.482,10.085-22.482,22.482v10.714c0,8.865,5.165,16.865,13.188,20.479
	l-5.395,133.079c-23.579,2.19-46.567,9.933-66.504,22.403c-20.11,12.579-37.204,30.026-49.435,50.455
	c-6.534,10.915-3.487,25.091,6.937,32.273c4.675,3.222,10.142,4.537,15.46,4.121c-13.684,22.401-21.593,48.714-21.593,76.885
	c0,81.592,66.143,147.735,147.735,147.735c69.074,0,127.06-47.411,143.232-111.462c3.241,4.168,8.291,6.834,14.004,6.834h124.882
	c2.602,0,5.061-0.695,7.195-1.921c-0.466,3.771-0.724,7.607-0.724,11.505c0,51.435,41.696,93.131,93.131,93.131
	c51.435,0,93.131-41.696,93.131-93.131c0-11.549-2.129-22.593-5.972-32.798c1.24,0.4,2.534,0.641,3.855,0.7
	c4.127,0.174,8.243-1.37,11.207-4.205c2.988-2.857,4.702-6.868,4.702-11.002V269.241C640.617,225.105,604.372,188.975,559.82,188.7z
	"/>
<path id="_x23_41B149" fill="#41B149" d="M299.709,389.714h144.429c-1.701,4.243-3.127,8.625-4.218,13.14
	c-0.655,2.711-3.041,4.645-5.829,4.645H309.209c-4.984,0-9.072-3.952-9.236-8.933C299.886,395.927,299.793,392.886,299.709,389.714z
	 M632.117,269.241v109.038c0,3.814-3.177,6.887-7.03,6.714c-2.483-0.111-4.648-1.69-5.796-3.895
	c-16.081-30.887-48.366-51.989-85.597-51.989c-36.674,0-68.554,20.472-84.872,50.605H299.496c-0.036-2.392-0.058-4.706-0.058-6.822
	c0-81.568-66.226-147.668-147.842-147.464c-46.521,0.116-88.281,22.067-115.313,56.216c-5.11,6.456-14.31,7.913-21.09,3.241
	c-6.796-4.682-8.705-13.826-4.466-20.908c23.903-39.927,67.096-67.179,116.83-69.259l5.982-147.568
	c-7.478-0.277-13.459-6.41-13.459-13.956V22.482c0-7.722,6.26-13.982,13.982-13.982h234.321c7.722,0,13.982,6.26,13.982,13.982
	v10.714c0,7.441-5.817,13.507-13.15,13.94l38.399,149.124l76.75,0.474l43.714,0.27l31.686,0.196
	C599.797,197.447,632.117,229.628,632.117,269.241z M213.938,47.179h-51.284l-4.709,147.541l55.993,0.346V47.179z M379.371,196.086
	L339.027,47.179h-95.946v148.066L379.371,196.086z M574.26,291.821c0-2.761-2.239-5-5-5H443.938c-2.761,0-5,2.239-5,5s2.239,5,5,5
	H569.26C572.021,296.821,574.26,294.583,574.26,291.821z M574.26,264.821c0-2.761-2.239-5-5-5H443.938c-2.761,0-5,2.239-5,5v0
	c0,2.761,2.239,5,5,5H569.26C572.021,269.821,574.26,267.583,574.26,264.821L574.26,264.821z M574.26,237.821c0-2.761-2.239-5-5-5
	H443.938c-2.761,0-5,2.239-5,5v0c0,2.761,2.239,5,5,5H569.26C572.021,242.821,574.26,240.583,574.26,237.821L574.26,237.821z"/>
<path id="_x23_000000" d="M287.254,383.324c-0.929-1.104-1.856-2.185-2.785-3.238c-0.827-0.946-1.818-2.061-2.893-3.15
	c-0.132-0.137-0.202-0.304-0.198-0.47l0.08-3.123l0.024,0l-0.012-0.467l0.011-0.43l-0.157-5.285
	c-0.001-0.242,0.071-0.451,0.205-0.587c1.824-1.855,3.657-3.804,5.45-5.794c1.005-1.123,1.472-2.672,1.282-4.252l-0.146-1.153
	c-0.247-1.977-0.502-4.021-0.9-6.011l-0.63-3.519c-0.144-0.792-0.327-1.575-0.517-2.379c-0.093-0.393-0.185-0.786-0.276-1.201
	c-0.329-1.421-1.209-2.667-2.413-3.415c-2.288-1.44-4.693-2.729-7.02-3.976l-0.452-0.242c-0.151-0.079-0.257-0.22-0.326-0.443
	l-0.973-2.873l0.003-0.001l-0.486-1.427c-0.2-0.6-0.401-1.199-0.636-1.831l-1.05-2.658c-0.063-0.16-0.052-0.356,0.03-0.521
	c1.106-2.197,2.012-4.341,2.981-6.638l0.279-0.658c0.589-1.437,0.538-3.068-0.147-4.487c-0.346-0.664-0.685-1.332-1.023-1.999
	l-0.102-0.2c-0.694-1.369-1.412-2.785-2.204-4.211l-1.838-3.197c-0.578-1.011-1.175-2.056-1.831-3.039
	c-0.784-1.226-2.037-2.106-3.438-2.416l-0.622-0.136c-1.157-0.253-2.354-0.515-3.587-0.733c-1.412-0.245-2.811-0.471-4.197-0.68
	c-0.164-0.024-0.312-0.106-0.382-0.202c-0.478-0.708-0.994-1.357-1.534-2.035c-0.128-0.161-0.256-0.321-0.383-0.482l0.003-0.001
	l-0.597-0.771l-0.005,0.004l-0.232-0.296c-1.004-1.283-2.041-2.61-3.152-3.84c-0.113-0.13-0.162-0.303-0.141-0.482
	c0.399-2.961,0.596-5.808,0.722-7.956c0.093-1.51-0.473-3.024-1.56-4.162c-1.144-1.146-2.331-2.271-3.504-3.382l-1.757-1.669
	c-0.619-0.53-1.233-1.065-1.882-1.631c-1.156-1.007-2.352-2.048-3.599-3.071c-1.142-0.897-2.612-1.323-4.031-1.158
	c-1.425,0.162-2.833,0.338-4.244,0.532c-1.362,0.201-2.725,0.448-4.069,0.692l-0.149,0.027c-0.174,0.033-0.343-0.002-0.479-0.098
	l-1.514-1.069l-5.177-3.316l-1.241-0.713c-0.149-0.085-0.249-0.23-0.289-0.416c-0.269-1.284-0.554-2.578-0.863-3.901
	c-0.314-1.289-0.663-2.555-1.023-3.854c-0.408-1.457-1.419-2.689-2.766-3.377c-1.089-0.583-2.159-1.068-3.343-1.596l-3.274-1.48
	c-1.475-0.646-2.965-1.226-4.405-1.787c-0.76-0.296-1.521-0.592-2.308-0.909c-1.348-0.517-2.898-0.445-4.255,0.2
	c-1.298,0.625-2.573,1.258-3.842,1.904l-1.908,0.99l-1.844,1.041c-0.163,0.093-0.338,0.117-0.518,0.067
	c-0.359-0.098-0.716-0.201-1.074-0.305l-0.107-0.031c-0.598-0.174-1.196-0.347-1.799-0.5l0.001-0.006l-0.408-0.094
	c-0.026-0.006-0.052-0.012-0.077-0.018l-0.487-0.113v0.001l-5.18-1.194c-0.171-0.031-0.312-0.131-0.408-0.291
	c-1.325-2.168-2.749-4.472-4.311-6.721c-0.865-1.237-2.243-2.059-3.781-2.255l-3.64-0.457l-4.858-0.371
	c-0.77-0.06-1.54-0.12-2.362-0.162l-3.57-0.091c-1.444-0.021-2.896,0.522-3.927,1.511c-2.054,2.011-4.052,4.168-5.91,6.206
	c-0.141,0.158-0.4,0.198-0.497,0.207l-3.028,0.231l-0.001-0.004l-0.981,0.079l0.001,0.001c-0.158,0.012-0.326,0.024-0.516,0.038
	c-0.637,0.045-1.274,0.091-1.938,0.167l-2.833,0.361c-0.181,0.021-0.361-0.041-0.519-0.174l-1.552-1.315l-1.527-1.209
	c-1.033-0.809-2.087-1.615-3.159-2.416c-1.226-0.918-2.77-1.27-4.38-0.98l-1.325,0.303c-1.889,0.43-3.778,0.861-5.743,1.343
	c-0.785,0.229-1.573,0.449-2.4,0.681c-1.479,0.414-3.006,0.842-4.54,1.333c-1.376,0.465-2.532,1.464-3.174,2.741
	c-0.643,1.283-1.266,2.559-1.872,3.842c-0.577,1.249-1.113,2.525-1.586,3.651l-0.118,0.28c-0.068,0.165-0.188,0.288-0.339,0.347
	l-1.729,0.683l-4.191,1.896c-0.811,0.356-1.764,0.789-2.687,1.284c-0.154,0.079-0.329,0.083-0.505,0.016
	c-1.221-0.473-2.461-0.938-3.72-1.395c-1.066-0.385-2.122-0.72-3.195-1.06l-0.611-0.194c-1.445-0.454-3.039-0.271-4.38,0.502
	l-1.618,0.94l-4.521,2.897c-1.333,0.866-2.627,1.795-3.903,2.711c-0.664,0.478-1.328,0.954-2.022,1.439
	c-1.171,0.844-1.958,2.185-2.162,3.685l-0.086,0.694c-0.328,2.653-0.639,5.16-0.768,7.802c-0.012,0.19-0.088,0.348-0.233,0.474
	c-0.274,0.245-0.555,0.484-0.834,0.723l-0.08,0.068c-0.557,0.474-1.188,1.011-1.778,1.596c-0.502,0.485-1.009,0.966-1.517,1.448
	c-0.885,0.839-1.77,1.679-2.668,2.576c-0.12,0.127-0.271,0.186-0.474,0.178l-0.365-0.012c-2.502-0.079-5.088-0.161-7.604-0.061
	c-1.512,0.042-2.958,0.735-3.968,1.902c-2.87,3.309-5.753,7.052-8.806,11.432c-0.878,1.191-1.203,2.724-0.893,4.205
	c0.65,3.093,1.206,5.67,1.938,8.319c0.051,0.182,0.032,0.362-0.051,0.507l-1.551,2.703l-0.019-0.01l-0.432,0.794l0.019,0.011
	l-2.424,4.733c-0.105,0.208-0.249,0.339-0.43,0.393c-2.28,0.703-4.964,1.552-7.579,2.517c-1.412,0.535-2.549,1.668-3.118,3.11
	l-1.337,3.414l-1.152,3.403c-0.123,0.378-0.253,0.755-0.392,1.157c-0.263,0.765-0.525,1.531-0.745,2.308l-0.979,3.437
	c-0.398,1.406-0.217,2.936,0.505,4.206c1.451,2.424,2.978,4.843,4.53,7.183c0.119,0.185,0.172,0.399,0.142,0.571l-0.616,3.454
	c-0.273,1.349-0.436,2.705-0.579,3.901c-0.074,0.616-0.149,1.232-0.239,1.873c-0.022,0.178-0.133,0.345-0.316,0.474
	c-2.355,1.705-4.603,3.488-6.302,4.854c-1.258,1.038-1.982,2.501-1.986,4.008c-0.014,0.819-0.038,1.639-0.062,2.458
	c-0.046,1.539-0.093,3.131-0.07,4.781c0.029,0.824,0.046,1.649,0.062,2.48c0.031,1.541,0.063,3.135,0.178,4.732
	c0.111,1.449,0.793,2.817,1.872,3.752c1.082,0.939,2.164,1.856,3.263,2.765c1.104,0.893,2.265,1.77,3.389,2.618
	c0.142,0.106,0.23,0.253,0.251,0.415l0.228,1.787c0.059,0.397,0.13,0.792,0.202,1.186l0.025,0.139l-0.006,0.001l0.176,0.948l0.004,0
	c0.086,0.468,0.167,0.937,0.248,1.406l0.026,0.156c0.208,1.201,0.422,2.444,0.707,3.682c0.038,0.165,0.001,0.334-0.109,0.49
	c-1.485,2.099-3.051,4.341-4.43,6.639c-0.792,1.288-1.004,2.878-0.581,4.365c1.227,4.294,2.788,8.755,4.767,13.628
	c0.525,1.396,1.632,2.506,3.032,3.043c2.552,0.991,5.274,2.032,8.028,2.917c0.182,0.057,0.324,0.17,0.399,0.318l1.42,2.774
	l-0.02,0.011l0.431,0.793l0.02-0.01l2.627,4.575c0.087,0.159,0.177,0.393,0.11,0.615c-0.88,3.077-1.505,5.458-2.026,7.723
	c-0.323,1.475,0.006,3.045,0.903,4.31l2.128,2.98l2.221,2.827c0.254,0.315,0.502,0.636,0.758,0.964
	c0.482,0.622,0.981,1.264,1.52,1.875l2.345,2.709c1,1.139,2.348,1.801,3.795,1.866c2.844,0.115,5.699,0.165,8.537,0.153
	c0.208,0,0.372,0.051,0.503,0.177l2.193,2.093l-0.002,0.002l0.364,0.343c0.007,0.007,0.015,0.014,0.022,0.021l0.331,0.316
	l0.004-0.004c0.804,0.741,1.631,1.451,2.446,2.15c0.517,0.442,1.033,0.886,1.55,1.342c0.146,0.128,0.241,0.331,0.255,0.536
	c0.134,2.615,0.329,5.28,0.58,7.921c0.146,1.501,0.968,2.895,2.259,3.827l2.9,2.061c0.667,0.481,1.349,0.913,2.026,1.342
	c0.344,0.218,0.688,0.437,1.05,0.674l3.086,1.974l3.095,1.784c1.258,0.723,2.786,0.928,4.179,0.543
	c2.92-0.837,5.741-1.796,8.114-2.622c0.182-0.062,0.397-0.053,0.568,0.021l3.198,1.444c1.28,0.614,2.622,1.136,3.885,1.627
	c0.497,0.193,0.994,0.387,1.504,0.594c0.167,0.065,0.302,0.214,0.382,0.425c0.851,2.143,1.849,4.458,3.142,7.289
	c0.672,1.462,1.905,2.523,3.367,2.907c5.019,1.487,9.624,2.611,14.082,3.438c1.416,0.253,2.941-0.073,4.084-0.867
	c2.544-1.728,5.001-3.665,6.857-5.16c0.154-0.125,0.312-0.154,0.403-0.143c0.87,0.133,1.721,0.192,2.543,0.25
	c0.211,0.015,0.423,0.029,0.635,0.045l-0.001,0.007l0.953,0.074l0.001-0.009c0.373,0.027,0.747,0.058,1.121,0.088l0.128,0.01
	c1.342,0.108,2.729,0.22,4.09,0.22c0.169,0.004,0.335,0.088,0.456,0.23c0.849,1,1.716,2,2.611,3.011
	c0.775,0.862,1.565,1.683,2.387,2.536l0.356,0.371c1.016,1.047,2.453,1.647,3.945,1.647l0.15-0.002
	c4.599-0.152,9.439-0.579,14.377-1.265c1.493-0.172,2.839-0.968,3.687-2.178c1.994-2.787,3.479-4.962,4.817-7.061
	c0.101-0.163,0.245-0.273,0.408-0.311l2.982-0.688l0.002,0.01l0.934-0.225l-0.003-0.011c1.05-0.272,2.092-0.572,3.135-0.872
	c0.657-0.189,1.314-0.378,1.965-0.558c0.201-0.055,0.428-0.026,0.602,0.072c2.245,1.308,4.583,2.601,6.95,3.843
	c1.322,0.696,2.967,0.771,4.439,0.201l0.552-0.216c2.03-0.794,4.13-1.616,6.134-2.569l3.307-1.497
	c0.709-0.346,1.411-0.707,2.111-1.068l1.105-0.565c1.301-0.666,2.295-1.831,2.729-3.2c0.882-2.835,1.615-5.746,2.235-8.252
	c0.059-0.243,0.256-0.397,0.329-0.447l2.955-1.896c1.243-0.76,2.412-1.597,3.542-2.406c0.415-0.297,0.83-0.595,1.261-0.896
	c0.145-0.103,0.34-0.136,0.562-0.087c2.281,0.462,4.691,0.879,7.813,1.352c1.578,0.242,3.144-0.208,4.281-1.23
	c4.097-3.482,7.556-6.718,10.574-9.891c1.004-1.053,1.56-2.48,1.524-3.917l-0.066-2.172l-0.14-2.135
	c-0.102-1.424-0.217-2.832-0.348-4.223c-0.011-0.11-0.003-0.283,0.195-0.517l1.874-2.386l0.002,0.002l0.607-0.778l-0.001,0
	c0.098-0.124,0.202-0.256,0.321-0.406c0.395-0.498,0.789-0.996,1.185-1.534l1.657-2.332c0.1-0.14,0.271-0.237,0.458-0.259
	c2.548-0.291,4.952-0.723,7.515-1.183l0.376-0.068c1.551-0.298,2.888-1.233,3.672-2.574c0.376-0.668,0.762-1.332,1.146-1.995
	l0.084-0.143c0.773-1.331,1.573-2.707,2.323-4.146l1.618-3.161c0.691-1.318,1.188-2.343,1.609-3.317c0.6-1.328,0.654-2.858,0.15-4.2
	l-0.299-0.788c-0.395-1.045-0.804-2.126-1.272-3.213c-0.565-1.317-1.14-2.612-1.721-3.886c-0.082-0.18-0.072-0.345-0.041-0.426
	c0.342-0.805,0.611-1.624,0.855-2.366c0.068-0.208,0.138-0.417,0.208-0.625l0.003,0l0.147-0.436
	c0.001-0.002,0.002-0.004,0.003-0.006l0.167-0.472l-0.007-0.002l0.231-0.683c0.49-1.438,0.996-2.924,1.382-4.412
	c0.049-0.169,0.168-0.304,0.347-0.392l0.224-0.109c1.109-0.546,2.244-1.104,3.356-1.698c1.148-0.625,2.302-1.271,3.457-1.934
	c1.312-0.752,2.263-2.045,2.61-3.551c0.359-1.577,0.643-3.219,0.896-4.684c0.14-0.803,0.279-1.607,0.44-2.463
	c0.253-1.583,0.447-3.164,0.636-4.692c0.101-0.812,0.201-1.625,0.312-2.455c0.177-1.43-0.274-2.918-1.239-4.083L287.254,383.324z
	 M151.974,443.286c-38.877,0-70.393-31.516-70.393-70.393s31.516-70.393,70.393-70.393s70.393,31.516,70.393,70.393
	S190.851,443.286,151.974,443.286z M617.008,432.007c-0.572-0.68-1.143-1.345-1.715-1.994c-0.509-0.583-1.12-1.269-1.781-1.94
	c-0.081-0.084-0.125-0.187-0.122-0.289l0.049-1.923l0.015,0l-0.007-0.288l0.007-0.265l-0.097-3.255
	c-0.001-0.149,0.044-0.278,0.126-0.361c1.124-1.143,2.252-2.343,3.357-3.568c0.619-0.692,0.906-1.646,0.79-2.619l-0.09-0.71
	c-0.152-1.217-0.309-2.476-0.554-3.702l-0.388-2.167c-0.088-0.487-0.201-0.97-0.318-1.465c-0.057-0.242-0.114-0.484-0.17-0.74
	c-0.203-0.875-0.745-1.642-1.486-2.103c-1.409-0.887-2.891-1.681-4.323-2.449l-0.278-0.149c-0.093-0.049-0.158-0.136-0.201-0.273
	l-0.599-1.769l0.002-0.001l-0.299-0.879c-0.123-0.369-0.247-0.739-0.392-1.127l-0.646-1.637c-0.039-0.099-0.032-0.219,0.019-0.321
	c0.681-1.353,1.239-2.673,1.836-4.088l0.172-0.405c0.363-0.885,0.331-1.889-0.091-2.764c-0.213-0.409-0.422-0.82-0.63-1.231
	l-0.062-0.123c-0.428-0.843-0.87-1.715-1.357-2.593l-1.132-1.969c-0.356-0.622-0.724-1.266-1.128-1.871
	c-0.483-0.755-1.255-1.297-2.117-1.488l-0.383-0.084c-0.713-0.156-1.449-0.317-2.209-0.451c-0.87-0.151-1.731-0.29-2.585-0.419
	c-0.101-0.015-0.193-0.065-0.235-0.124c-0.294-0.436-0.612-0.836-0.945-1.253c-0.079-0.099-0.157-0.198-0.236-0.297l0.002-0.001
	l-0.367-0.475l-0.003,0.002l-0.143-0.182c-0.618-0.79-1.257-1.608-1.941-2.365c-0.07-0.08-0.1-0.187-0.087-0.297
	c0.246-1.824,0.367-3.577,0.445-4.9c0.057-0.93-0.291-1.862-0.96-2.563c-0.704-0.706-1.436-1.399-2.158-2.083l-1.082-1.028
	c-0.381-0.327-0.76-0.656-1.159-1.005c-0.712-0.62-1.448-1.262-2.216-1.891c-0.703-0.553-1.609-0.815-2.483-0.713
	c-0.877,0.1-1.745,0.208-2.614,0.327c-0.839,0.124-1.678,0.276-2.506,0.426l-0.092,0.017c-0.107,0.02-0.211-0.002-0.295-0.06
	l-0.932-0.658l-3.188-2.042l-0.764-0.439c-0.092-0.053-0.153-0.142-0.178-0.256c-0.165-0.791-0.341-1.587-0.532-2.402
	c-0.194-0.794-0.408-1.574-0.63-2.373c-0.251-0.897-0.874-1.656-1.703-2.08c-0.671-0.359-1.33-0.658-2.059-0.983l-2.017-0.911
	c-0.908-0.398-1.826-0.755-2.713-1.1c-0.468-0.183-0.937-0.365-1.421-0.56c-0.83-0.318-1.785-0.274-2.62,0.123
	c-0.799,0.385-1.585,0.775-2.366,1.173l-1.175,0.61l-1.135,0.641c-0.1,0.057-0.208,0.072-0.319,0.042
	c-0.221-0.06-0.441-0.124-0.662-0.188l-0.066-0.019c-0.368-0.107-0.737-0.214-1.108-0.308l0.001-0.004l-0.251-0.058
	c-0.016-0.004-0.032-0.007-0.047-0.011l-0.3-0.069v0.001l-3.19-0.735c-0.105-0.019-0.192-0.081-0.251-0.179
	c-0.816-1.335-1.693-2.754-2.655-4.139c-0.533-0.762-1.381-1.268-2.329-1.389l-2.241-0.281l-2.992-0.228
	c-0.474-0.037-0.948-0.074-1.455-0.1l-2.199-0.056c-0.89-0.013-1.783,0.322-2.418,0.931c-1.265,1.239-2.495,2.567-3.64,3.822
	c-0.087,0.097-0.247,0.122-0.306,0.128l-1.865,0.142l-0.001-0.002l-0.604,0.049l0.001,0.001c-0.097,0.007-0.201,0.015-0.318,0.023
	c-0.392,0.028-0.785,0.056-1.194,0.103l-1.745,0.223c-0.111,0.013-0.223-0.025-0.319-0.107l-0.956-0.81l-0.941-0.745
	c-0.636-0.498-1.285-0.995-1.946-1.488c-0.755-0.565-1.706-0.782-2.697-0.604l-0.816,0.186c-1.163,0.265-2.327,0.53-3.537,0.827
	c-0.484,0.141-0.969,0.277-1.478,0.419c-0.911,0.255-1.851,0.519-2.796,0.821c-0.847,0.286-1.56,0.902-1.955,1.688
	c-0.396,0.79-0.78,1.576-1.153,2.366c-0.355,0.769-0.686,1.555-0.977,2.248l-0.073,0.172c-0.042,0.101-0.116,0.177-0.209,0.214
	l-1.065,0.421l-2.581,1.167c-0.499,0.219-1.086,0.486-1.655,0.791c-0.095,0.049-0.203,0.051-0.311,0.01
	c-0.752-0.291-1.516-0.578-2.291-0.859c-0.657-0.237-1.307-0.443-1.968-0.653l-0.376-0.12c-0.89-0.28-1.872-0.167-2.698,0.309
	l-0.997,0.579l-2.784,1.784c-0.821,0.534-1.618,1.106-2.404,1.67c-0.409,0.294-0.818,0.588-1.245,0.887
	c-0.721,0.52-1.206,1.345-1.332,2.27l-0.053,0.427c-0.202,1.634-0.393,3.178-0.473,4.805c-0.007,0.117-0.054,0.214-0.144,0.292
	c-0.169,0.151-0.342,0.298-0.514,0.445l-0.049,0.042c-0.343,0.292-0.731,0.622-1.095,0.983c-0.309,0.299-0.621,0.595-0.934,0.892
	c-0.545,0.517-1.09,1.034-1.643,1.586c-0.074,0.078-0.167,0.114-0.292,0.109l-0.225-0.008c-1.541-0.049-3.134-0.099-4.683-0.038
	c-0.931,0.026-1.822,0.453-2.444,1.171c-1.768,2.038-3.543,4.343-5.423,7.04c-0.541,0.734-0.741,1.677-0.55,2.59
	c0.401,1.905,0.743,3.492,1.193,5.124c0.031,0.112,0.02,0.223-0.031,0.312l-0.955,1.664l-0.011-0.006l-0.266,0.489l0.011,0.007
	l-1.493,2.915c-0.065,0.128-0.153,0.209-0.265,0.242c-1.404,0.433-3.057,0.956-4.668,1.55c-0.87,0.33-1.57,1.028-1.92,1.916
	l-0.823,2.102l-0.71,2.096c-0.076,0.233-0.156,0.465-0.241,0.712c-0.162,0.471-0.324,0.943-0.459,1.421l-0.603,2.116
	c-0.245,0.866-0.133,1.808,0.311,2.59c0.894,1.493,1.834,2.983,2.79,4.424c0.073,0.114,0.106,0.246,0.087,0.352l-0.379,2.127
	c-0.168,0.831-0.268,1.666-0.357,2.402c-0.046,0.379-0.092,0.759-0.147,1.154c-0.014,0.109-0.082,0.213-0.195,0.292
	c-1.451,1.05-2.834,2.148-3.881,2.99c-0.775,0.639-1.221,1.54-1.223,2.469c-0.009,0.505-0.023,1.009-0.039,1.514
	c-0.028,0.948-0.057,1.928-0.043,2.945c0.018,0.508,0.028,1.016,0.038,1.528c0.019,0.949,0.039,1.931,0.109,2.915
	c0.068,0.893,0.488,1.735,1.153,2.311c0.667,0.579,1.333,1.143,2.01,1.703c0.679,0.55,1.395,1.09,2.087,1.612
	c0.087,0.066,0.142,0.156,0.155,0.255l0.14,1.101c0.036,0.244,0.08,0.488,0.125,0.73l0.016,0.085l-0.004,0.001l0.108,0.584l0.002,0
	c0.053,0.288,0.103,0.577,0.153,0.866l0.016,0.096c0.128,0.74,0.26,1.505,0.435,2.267c0.023,0.102,0.001,0.206-0.067,0.302
	c-0.915,1.292-1.879,2.673-2.728,4.089c-0.488,0.793-0.618,1.773-0.358,2.688c0.755,2.644,1.717,5.392,2.936,8.393
	c0.324,0.86,1.005,1.543,1.867,1.874c1.572,0.61,3.248,1.251,4.944,1.796c0.112,0.035,0.2,0.105,0.246,0.196l0.875,1.709
	l-0.012,0.007l0.265,0.489l0.012-0.006l1.618,2.818c0.054,0.098,0.109,0.242,0.068,0.379c-0.542,1.895-0.927,3.361-1.248,4.756
	c-0.199,0.908,0.004,1.876,0.556,2.654l1.311,1.836l1.368,1.741c0.156,0.194,0.309,0.392,0.467,0.594
	c0.297,0.383,0.604,0.779,0.936,1.155l1.444,1.668c0.616,0.701,1.446,1.109,2.337,1.149c1.751,0.071,3.51,0.102,5.258,0.094
	c0.128,0,0.229,0.032,0.31,0.109l1.351,1.289l-0.001,0.001l0.224,0.211c0.004,0.005,0.009,0.009,0.014,0.013l0.204,0.195
	l0.002-0.002c0.495,0.456,1.004,0.893,1.507,1.324c0.318,0.272,0.636,0.545,0.954,0.827c0.09,0.079,0.149,0.204,0.157,0.33
	c0.083,1.61,0.203,3.252,0.357,4.878c0.09,0.924,0.596,1.783,1.391,2.357l1.786,1.269c0.411,0.296,0.831,0.562,1.248,0.826
	c0.212,0.134,0.424,0.269,0.646,0.415l1.901,1.216l1.906,1.099c0.775,0.445,1.716,0.572,2.573,0.334
	c1.798-0.516,3.536-1.106,4.997-1.615c0.112-0.038,0.245-0.032,0.35,0.013l1.97,0.889c0.788,0.378,1.615,0.699,2.392,1.002
	c0.306,0.119,0.612,0.238,0.926,0.366c0.103,0.04,0.186,0.132,0.235,0.262c0.524,1.32,1.139,2.746,1.935,4.489
	c0.414,0.901,1.173,1.554,2.074,1.79c3.091,0.916,5.927,1.608,8.673,2.117c0.872,0.156,1.812-0.045,2.515-0.534
	c1.567-1.064,3.08-2.257,4.223-3.178c0.095-0.077,0.193-0.095,0.249-0.088c0.536,0.082,1.06,0.118,1.566,0.154
	c0.13,0.009,0.26,0.018,0.391,0.028l-0.001,0.005l0.587,0.045l0-0.005c0.23,0.017,0.46,0.035,0.69,0.054l0.079,0.006
	c0.826,0.066,1.68,0.135,2.519,0.136c0.104,0.002,0.206,0.054,0.281,0.142c0.523,0.616,1.057,1.232,1.608,1.854
	c0.477,0.531,0.964,1.036,1.47,1.562l0.22,0.228c0.625,0.645,1.511,1.014,2.43,1.014l0.093-0.002
	c2.832-0.094,5.813-0.356,8.854-0.779c0.92-0.106,1.748-0.596,2.27-1.341c1.228-1.716,2.142-3.056,2.967-4.348
	c0.062-0.1,0.151-0.168,0.251-0.192l1.837-0.424l0.001,0.006l0.575-0.139l-0.002-0.007c0.646-0.168,1.288-0.352,1.931-0.537
	c0.405-0.117,0.809-0.233,1.21-0.344c0.124-0.034,0.263-0.016,0.371,0.045c1.383,0.806,2.823,1.602,4.28,2.367
	c0.814,0.428,1.827,0.474,2.734,0.124l0.34-0.133c1.25-0.489,2.543-0.995,3.778-1.582l2.036-0.922
	c0.437-0.213,0.869-0.435,1.3-0.658l0.681-0.348c0.801-0.41,1.413-1.128,1.681-1.971c0.543-1.746,0.995-3.539,1.377-5.082
	c0.036-0.149,0.158-0.245,0.203-0.275l1.82-1.167c0.766-0.468,1.485-0.983,2.181-1.482c0.256-0.183,0.511-0.366,0.776-0.552
	c0.089-0.063,0.209-0.084,0.346-0.054c1.405,0.285,2.889,0.542,4.812,0.832c0.972,0.149,1.936-0.128,2.637-0.758
	c2.523-2.145,4.653-4.138,6.512-6.092c0.618-0.649,0.96-1.527,0.939-2.412l-0.041-1.338l-0.086-1.315
	c-0.063-0.877-0.134-1.744-0.214-2.601c-0.007-0.068-0.002-0.174,0.12-0.318l1.154-1.47l0.001,0.001l0.374-0.479l-0.001,0
	c0.06-0.076,0.125-0.158,0.198-0.25c0.243-0.307,0.486-0.613,0.729-0.945l1.021-1.436c0.061-0.086,0.167-0.146,0.282-0.16
	c1.569-0.179,3.05-0.445,4.628-0.728l0.232-0.042c0.955-0.183,1.778-0.76,2.261-1.585c0.232-0.411,0.469-0.82,0.706-1.228
	l0.052-0.088c0.476-0.82,0.969-1.667,1.431-2.553l0.997-1.947c0.426-0.812,0.732-1.443,0.991-2.043
	c0.369-0.818,0.403-1.76,0.093-2.587l-0.184-0.485c-0.243-0.644-0.495-1.31-0.784-1.979c-0.348-0.811-0.702-1.609-1.06-2.393
	c-0.051-0.111-0.045-0.212-0.025-0.262c0.211-0.496,0.377-1,0.527-1.457c0.042-0.128,0.085-0.257,0.128-0.385l0.002,0l0.091-0.269
	c0.001-0.001,0.001-0.002,0.002-0.004l0.103-0.29l-0.004-0.001l0.142-0.42c0.302-0.885,0.613-1.801,0.851-2.717
	c0.03-0.104,0.103-0.187,0.214-0.241l0.138-0.067c0.683-0.336,1.382-0.68,2.067-1.046c0.707-0.385,1.417-0.782,2.129-1.191
	c0.808-0.463,1.393-1.26,1.608-2.187c0.221-0.971,0.396-1.983,0.552-2.884c0.086-0.495,0.172-0.99,0.271-1.517
	c0.156-0.975,0.276-1.949,0.391-2.89c0.062-0.5,0.124-1,0.192-1.512c0.109-0.881-0.169-1.797-0.763-2.515L617.008,432.007z
	 M533.694,468.936c-23.943,0-43.353-19.41-43.353-43.353c0-23.943,19.41-43.353,43.353-43.353c23.943,0,43.353,19.41,43.353,43.353
	C577.046,449.526,557.637,468.936,533.694,468.936z M528.081,197.004l-43.714-0.27v-49.529c0-7.683,5.443-14.094,12.683-15.589
	c0.159-33.833,9.078-48.634,16.574-55.086c6.455-5.554,12.848-6.088,15.514-6.028c0.754,0.017,1.832,0.129,2.099,0.185
	c3.721,0.773,6.522,6.352,6.522,13.34c0,7.33-3.08,13.116-7.073,13.424c-0.112,0.009-1.195-0.091-2.37,0.193
	c-1.095,0.265-2.539,0.861-4.044,2.172c-3.839,3.344-8.406,11.601-8.491,31.898c7.045,1.641,12.3,7.945,12.3,15.49V197.004z"/>
<path id="_x23_E6E6E6" fill="#E6E6E6" d="M217.367,372.893c0,36.058-29.335,65.393-65.393,65.393s-65.393-29.335-65.393-65.393
	s29.335-65.393,65.393-65.393S217.367,336.835,217.367,372.893z M533.694,387.231c-21.147,0-38.353,17.205-38.353,38.353
	s17.205,38.353,38.353,38.353s38.353-17.205,38.353-38.353S554.841,387.231,533.694,387.231z"/>
<g>
</g>
<g>
</g>
<g>
</g>
<g>
</g>
<g>
</g>
</svg>
